<?xml version="1.0" encoding="utf-8"?>
<!-- Generator: Adobe Illustrator 21.1.0, SVG Export Plug-In . SVG Version: 6.00 Build 0)  -->
<svg version="1.1" id="Layer_1" xmlns="http://www.w3.org/2000/svg" xmlns:xlink="http://www.w3.org/1999/xlink" x="0px" y="0px"
	 viewBox="0 0 403.1 204.8" style="enable-background:new 0 0 403.1 204.8;" xml:space="preserve">
<style type="text/css">
	.st0{fill-rule:evenodd;clip-rule:evenodd;fill:#2D548E;}
	.st1{fill:#FFFFFF;}
	.st2{fill-rule:evenodd;clip-rule:evenodd;fill:#1C2955;}
	.st3{fill-rule:evenodd;clip-rule:evenodd;fill:#FFFFFF;}
	.st4{fill-rule:evenodd;clip-rule:evenodd;fill:#6C6E70;}
</style>
<path class="st0" d="M61.5,0h280.1c33.8,0,61.5,27.7,61.5,61.5V109c0,33.8-27.7,61.5-61.5,61.5H61.5C27.7,170.5,0,142.8,0,109V61.5
	C0,27.7,27.7,0,61.5,0z"/>
<path class="st1" d="M341.6,164.1H61.5c-30.4,0-55.1-24.7-55.1-55.1V61.5c0-30.4,24.7-55.1,55.1-55.1h280.1
	c30.4,0,55.1,24.7,55.1,55.1V109C396.8,139.4,372,164.1,341.6,164.1z M61.5,8.4C32.2,8.4,8.4,32.2,8.4,61.5V109
	c0,29.3,23.8,53.1,53.1,53.1h280.1c29.3,0,53.1-23.8,53.1-53.1V61.5c0-29.3-23.8-53.1-53.1-53.1H61.5z"/>
<g>
	<path class="st2" d="M36.2,35.2h19.4c2.6,0,4.7,2.1,4.7,4.7v90.8c0,2.6-2.1,4.7-4.7,4.7H36.2c-2.6,0-4.7-2.1-4.7-4.7V39.8
		C31.6,37.3,33.7,35.2,36.2,35.2z"/>
	<path class="st2" d="M132,35.2H64.7c-2.4,0-4.4,2-4.4,4.4v91.3c0,2.4,2,4.4,4.4,4.4H132c16.2,0,29.5-13.3,29.5-29.5V64.6
		C161.5,48.4,148.2,35.2,132,35.2L132,35.2z M114.6,59.2c11.2,0,20.3,9.1,20.3,20.3v13c0,11.2-9.1,20.3-20.3,20.3H87.2V59.2H114.6z"
		/>
	<path class="st2" d="M371.6,116.7v15c0,2-1.6,3.6-3.6,3.6H191c-16.4-0.1-28.1-13-29.4-26.3c0-0.2-0.1-0.5-0.1-0.7l0-44
		c0.3-16.3,13-29.1,29.5-29.1h41.7c2,0,3.6,1.6,3.6,3.6v15c0,2-1.6,3.6-3.6,3.6h-24.5c-17.8,0-20.7,15.3-20.7,26.2
		c0,8.5-2.4,29.5,13.8,29.5H368C369.9,113.1,371.6,114.8,371.6,116.7z"/>
</g>
<path class="st3" d="M239.7,130v-9.5h-3.4v-1.9h9.1v1.9H242v9.5H239.7L239.7,130z M246.9,130v-11.5h8.5v1.9h-6.2v2.5h5.7v1.9h-5.7
	v3.1h6.4v1.9H246.9L246.9,130z M264.9,125.7l2.2,0.7c-0.3,1.3-0.9,2.2-1.7,2.8c-0.8,0.6-1.8,0.9-3,0.9c-1.5,0-2.8-0.5-3.8-1.6
	c-1-1-1.5-2.5-1.5-4.3c0-1.9,0.5-3.4,1.5-4.5c1-1.1,2.3-1.6,3.9-1.6c1.4,0,2.5,0.4,3.4,1.2c0.5,0.5,0.9,1.2,1.2,2.1l-2.3,0.5
	c-0.1-0.6-0.4-1.1-0.9-1.4c-0.4-0.3-1-0.5-1.6-0.5c-0.9,0-1.5,0.3-2.1,0.9c-0.5,0.6-0.8,1.6-0.8,3c0,1.4,0.3,2.5,0.8,3.1
	c0.5,0.6,1.2,0.9,2,0.9c0.6,0,1.1-0.2,1.6-0.6C264.4,127.2,264.7,126.6,264.9,125.7L264.9,125.7z M269.2,130v-11.5h2.3v4.5h4.5v-4.5
	h2.3V130H276v-5h-4.5v5H269.2L269.2,130z M280.8,130v-11.5h2.3l4.7,7.7v-7.7h2.1V130h-2.3l-4.7-7.5v7.5H280.8L280.8,130z
	 M291.9,124.3c0-1.2,0.2-2.2,0.5-3c0.3-0.6,0.6-1.1,1.1-1.6c0.5-0.5,0.9-0.8,1.5-1c0.7-0.3,1.5-0.5,2.5-0.5c1.7,0,3,0.5,4.1,1.6
	c1,1.1,1.5,2.5,1.5,4.4c0,1.9-0.5,3.3-1.5,4.4c-1,1.1-2.4,1.6-4,1.6c-1.7,0-3.1-0.5-4.1-1.6C292.4,127.6,291.9,126.1,291.9,124.3
	L291.9,124.3z M294.2,124.2c0,1.3,0.3,2.3,0.9,3c0.6,0.7,1.4,1,2.3,1c0.9,0,1.7-0.3,2.3-1c0.6-0.7,0.9-1.7,0.9-3
	c0-1.3-0.3-2.3-0.9-2.9c-0.6-0.7-1.3-1-2.3-1c-1,0-1.7,0.3-2.3,1C294.5,121.9,294.2,122.9,294.2,124.2L294.2,124.2z M304.9,130
	v-11.4h2.3v9.4h5.8v1.9H304.9L304.9,130z M314.1,124.3c0-1.2,0.2-2.2,0.5-3c0.3-0.6,0.6-1.1,1.1-1.6c0.5-0.5,0.9-0.8,1.5-1
	c0.7-0.3,1.5-0.5,2.5-0.5c1.7,0,3,0.5,4.1,1.6c1,1.1,1.5,2.5,1.5,4.4c0,1.9-0.5,3.3-1.5,4.4c-1,1.1-2.4,1.6-4,1.6
	c-1.7,0-3.1-0.5-4.1-1.6C314.6,127.6,314.1,126.1,314.1,124.3L314.1,124.3z M316.5,124.2c0,1.3,0.3,2.3,0.9,3c0.6,0.7,1.4,1,2.3,1
	c0.9,0,1.7-0.3,2.3-1c0.6-0.7,0.9-1.7,0.9-3c0-1.3-0.3-2.3-0.9-2.9c-0.6-0.7-1.3-1-2.3-1c-1,0-1.7,0.3-2.3,1
	C316.8,121.9,316.5,122.9,316.5,124.2L316.5,124.2z M332.4,125.7v-1.9h5v4.6c-0.5,0.5-1.2,0.9-2.1,1.2c-0.9,0.4-1.9,0.5-2.8,0.5
	c-1.2,0-2.2-0.3-3.1-0.8c-0.9-0.5-1.6-1.2-2-2.2c-0.4-0.9-0.7-2-0.7-3.1c0-1.2,0.3-2.3,0.8-3.2c0.5-0.9,1.2-1.6,2.2-2.1
	c0.7-0.4,1.7-0.6,2.7-0.6c1.4,0,2.5,0.3,3.3,0.9c0.8,0.6,1.3,1.4,1.5,2.5l-2.3,0.4c-0.2-0.6-0.5-1-0.9-1.3c-0.4-0.3-1-0.5-1.7-0.5
	c-1,0-1.8,0.3-2.4,1c-0.6,0.6-0.9,1.6-0.9,2.9c0,1.4,0.3,2.4,0.9,3.1c0.6,0.7,1.4,1,2.4,1c0.5,0,1-0.1,1.5-0.3
	c0.5-0.2,0.9-0.4,1.3-0.7v-1.5H332.4L332.4,125.7z M339.5,130v-11.5h2.3V130H339.5L339.5,130z M344,130v-11.5h8.5v1.9h-6.2v2.5h5.7
	v1.9h-5.7v3.1h6.4v1.9H344L344,130z M354.1,126.2l2.3-0.2c0.1,0.8,0.4,1.3,0.8,1.7c0.4,0.4,1,0.5,1.7,0.5c0.7,0,1.3-0.2,1.7-0.5
	c0.4-0.3,0.6-0.7,0.6-1.1c0-0.3-0.1-0.5-0.2-0.7c-0.2-0.2-0.4-0.4-0.8-0.5c-0.3-0.1-0.9-0.3-1.8-0.5c-1.2-0.3-2.1-0.7-2.6-1.1
	c-0.7-0.6-1.1-1.4-1.1-2.3c0-0.6,0.2-1.1,0.5-1.6c0.3-0.5,0.8-0.9,1.4-1.2c0.6-0.3,1.4-0.4,2.3-0.4c1.4,0,2.5,0.3,3.2,1
	c0.7,0.6,1.1,1.5,1.1,2.6l-2.3,0.1c-0.1-0.6-0.3-1-0.6-1.3c-0.3-0.3-0.8-0.4-1.5-0.4c-0.7,0-1.2,0.1-1.6,0.4
	c-0.2,0.2-0.4,0.4-0.4,0.7c0,0.3,0.1,0.5,0.3,0.7c0.3,0.2,1,0.5,2.1,0.8c1.1,0.3,2,0.5,2.5,0.8c0.5,0.3,1,0.7,1.3,1.2
	c0.3,0.5,0.5,1.1,0.5,1.8c0,0.7-0.2,1.3-0.5,1.8c-0.4,0.6-0.9,1-1.6,1.3c-0.7,0.3-1.5,0.4-2.5,0.4c-1.5,0-2.6-0.3-3.3-1
	C354.7,128.5,354.2,127.5,354.1,126.2z"/>
<path class="st4" d="M19.8,179.9l-0.4,3c-2.6-0.1-4.9-0.2-7-0.2c-0.1,1-0.2,2.5-0.4,4.5c1.8,0,3.7-0.1,5.8-0.1l-0.3,2.9
	c-2-0.1-3.9-0.1-5.8-0.1c-0.2,1.9-0.3,3.6-0.5,5.2c2.4,0,4.9-0.1,7.7-0.2l-0.4,3H7.4c0.2-1.3,0.6-4.4,1.2-9.3
	c0.3-3.3,0.5-6.2,0.6-8.5H19.8L19.8,179.9z M41.9,188.4c0,0.9-0.1,2.5-0.4,4.7c-0.2,2.2-0.4,3.7-0.4,4.7l-3.5,0.1
	c0-0.6,0.1-2,0.4-4.1c0.3-2.1,0.4-3.6,0.4-4.3c0-1-0.1-1.6-0.3-2c-0.2-0.4-0.6-0.6-1.2-0.6c-0.9,0-1.7,0.5-2.4,1.6
	c-0.7,1-1.1,2.4-1.3,4c-0.2,2.1-0.3,3.8-0.4,5.3l-3.5,0.1c0-0.5,0.1-1.8,0.5-4c0.3-2.2,0.5-3.7,0.5-4.4c0-1-0.1-1.7-0.4-2
	c-0.2-0.4-0.6-0.6-1.2-0.6c-0.9,0-1.6,0.5-2.3,1.6c-0.7,1.1-1.1,2.4-1.3,4c-0.2,2-0.4,3.8-0.5,5.3l-3.4,0.1c0.6-4.7,1-7.9,1-9.6
	c0-1-0.1-2.1-0.2-3.5l3.4-0.3c0.1,0.7,0.1,1.6,0.1,2.7h0.2c1-1.9,2.6-2.9,4.6-2.9c1,0,1.8,0.3,2.4,0.8c0.5,0.5,0.8,1.2,0.9,2.1h0.2
	c1.1-1.9,2.7-2.9,4.7-2.9c1.3,0,2.2,0.3,2.7,1C41.7,186,41.9,187,41.9,188.4L41.9,188.4z M57.5,189.6c0,2.4-0.6,4.4-1.9,6.1
	c-1.3,1.7-2.9,2.5-5,2.5c-1.3,0-2.3-0.3-2.9-0.9h-0.2c-0.2,2.2-0.4,4.5-0.6,6.7l-3.6,0.1c1.2-8.4,1.7-13.8,1.7-16.1
	c0-0.9-0.1-1.9-0.2-3.1l3.4-0.4c0.1,0.7,0.1,1.6,0.1,2.7h0.2c1.1-1.9,2.7-2.9,4.7-2.9c1.4,0,2.4,0.5,3.1,1.4
	C57.2,186.7,57.5,188,57.5,189.6L57.5,189.6z M54.1,190.3c0-2.3-0.7-3.5-2.2-3.5c-0.9,0-1.7,0.6-2.5,1.8c-0.8,1.2-1.2,2.5-1.4,3.8
	l-0.3,2.5c0.7,0.4,1.4,0.6,2.2,0.6c1.4,0,2.4-0.5,3.1-1.6C53.7,193,54.1,191.7,54.1,190.3L54.1,190.3z M72.6,190.2
	c0,2.2-0.7,4.1-2.1,5.7c-1.4,1.6-3.2,2.3-5.5,2.3c-1.6,0-2.9-0.6-4-1.7c-1.1-1.1-1.7-2.6-1.7-4.5c0-2.2,0.7-4.1,2.1-5.6
	c1.4-1.5,3.3-2.3,5.5-2.3c1.6,0,2.9,0.6,4,1.7C72,186.9,72.6,188.4,72.6,190.2L72.6,190.2z M69.1,190.5c0-1.1-0.2-2.1-0.7-2.8
	c-0.5-0.7-1.2-1.1-2-1.1c-1.1,0-2,0.5-2.6,1.6c-0.7,1.1-1,2.3-1,3.6c0,1.1,0.2,2.1,0.7,2.8c0.5,0.7,1.2,1.1,2,1.1
	c1.1,0,2-0.5,2.6-1.6C68.8,193.1,69.1,191.9,69.1,190.5L69.1,190.5z M94.8,184.6c0,0.7-0.9,2.9-2.8,6.7c-1.9,3.8-2.8,5.9-2.9,6.5h-3
	c0-0.6-0.2-2-0.7-4.4c-0.5-2.4-0.8-4-0.9-5h-0.2c-0.4,1-1.1,2.7-2.1,5.1c-1.1,2.4-1.6,3.8-1.7,4.3h-3c0-0.7-0.5-2.9-1.4-6.5
	c-0.9-3.6-1.4-5.8-1.4-6.5l3.7-0.2c0,0.9,0.2,2.5,0.6,5c0.4,2.5,0.6,4.1,0.6,4.8h0.2c0.1-0.6,0.7-2.2,1.9-4.9
	c1.2-2.6,1.8-4.2,1.8-4.8h3.1c0,0.6,0.3,2.2,0.8,4.8c0.5,2.6,0.8,4.2,0.8,4.8h0.2c0-0.4,0.6-2,1.7-4.6c1.1-2.6,1.6-4.3,1.6-5
	L94.8,184.6L94.8,184.6z M107.9,187.6c0,2.7-2.9,4.1-8.8,4.2c0,1.2,0.2,2.1,0.7,2.7c0.4,0.6,1.2,0.9,2.3,0.9c1.5,0,3-0.5,4.7-1.4
	l-0.4,2.7c-1.4,0.9-3.1,1.4-5.2,1.4c-1.9,0-3.2-0.6-4.1-1.7c-0.9-1.1-1.3-2.6-1.3-4.4c0-2.4,0.7-4.3,2.2-5.7
	c1.5-1.4,3.3-2.2,5.3-2.2c1.4,0,2.5,0.3,3.3,0.9C107.5,185.6,107.9,186.5,107.9,187.6L107.9,187.6z M104.8,187.8
	c0-0.9-0.7-1.3-2-1.3c-0.8,0-1.5,0.3-2.2,0.9c-0.7,0.6-1.1,1.4-1.4,2.5C103,189.8,104.8,189.1,104.8,187.8L104.8,187.8z
	 M119.2,184.6l-1.1,3.2c-0.6-0.2-1.3-0.3-1.9-0.3c-1.7,0-2.6,0.9-2.8,2.7c-0.3,2.8-0.5,5.3-0.7,7.5l-3.4,0.1c0.6-4.7,1-7.9,1-9.6
	c0-1-0.1-2.1-0.2-3.5l3.4-0.3c0.1,0.6,0.1,1.2,0.1,1.8h0.2c0.9-1.3,2.1-2,3.4-2C117.8,184.3,118.5,184.4,119.2,184.6L119.2,184.6z
	 M124.5,184.5c0,0.2-0.1,1.2-0.3,2.8c-0.2,1.6-0.4,3-0.5,4c-0.2,1.9-0.4,4.1-0.5,6.5l-3.5,0.1c0.2-1.2,0.5-3.4,0.9-6.6
	c0.2-1.7,0.3-3.4,0.3-4.9c0-0.6,0-1.1-0.1-1.5L124.5,184.5L124.5,184.5z M125.6,180.3c0,0.7-0.2,1.3-0.7,1.8
	c-0.5,0.5-1.1,0.8-1.8,0.8c-0.6,0-1-0.2-1.3-0.5c-0.3-0.3-0.5-0.8-0.5-1.3c0-0.7,0.2-1.3,0.7-1.8c0.5-0.5,1.1-0.7,1.8-0.7
	C125,178.6,125.6,179.1,125.6,180.3L125.6,180.3z M139.1,188.4c0,0.8-0.1,2.3-0.4,4.5c-0.2,2.2-0.4,3.8-0.4,4.9l-3.5,0.1
	c0-0.4,0.1-1.7,0.5-3.9c0.3-2.2,0.5-3.7,0.5-4.6c0-0.9-0.1-1.6-0.4-2c-0.3-0.4-0.7-0.5-1.4-0.5c-0.8,0-1.6,0.5-2.3,1.6
	c-0.7,1.1-1.2,2.4-1.4,4c-0.2,2-0.4,3.7-0.4,5.3l-3.4,0.1c0.6-4.7,1-7.9,1-9.6c0-1-0.1-2.1-0.2-3.5l3.4-0.3c0.1,0.8,0.1,1.7,0.1,2.7
	h0.2c1.1-1.9,2.7-2.9,4.7-2.9C138,184.3,139.1,185.7,139.1,188.4L139.1,188.4z M155.7,182.8l-0.5,2.5c-1.4,0-2.2,0.2-2.6,0.6l0,0.2
	c0.4,0.7,0.6,1.3,0.6,2.1c0,1.6-0.6,2.8-1.8,3.7c-1.2,0.9-2.6,1.3-4.3,1.3c-0.9,0-1.6-0.1-2.1-0.2c-0.4,0.4-0.7,0.8-0.7,1.2
	c0,0.5,0.2,0.8,0.6,0.9c0.4,0.1,1.9,0.2,4.5,0.2c2.8,0,4.2,1,4.2,3.1c0,1.9-0.8,3.5-2.4,4.6c-1.6,1.2-3.6,1.7-5.8,1.7
	c-1.8,0-3.1-0.3-4-0.9c-0.9-0.6-1.3-1.5-1.3-2.6c0-1.6,0.9-2.8,2.6-3.7l0-0.2c-0.6-0.4-0.9-1-0.9-1.8c0-1,0.6-2,1.8-2.9l0-0.2
	c-0.5-0.3-0.9-0.7-1.3-1.3c-0.4-0.6-0.5-1.2-0.5-2c0-1.6,0.6-2.9,1.9-3.7c1.3-0.8,2.8-1.2,4.5-1.2c1.3,0,2.4,0.3,3.3,0.9h0.2
	c0.4-1.8,1.3-2.7,2.7-2.7C154.8,182.5,155.3,182.6,155.7,182.8L155.7,182.8z M150.3,199.6c0-0.5-0.2-0.9-0.6-1.1
	c-0.4-0.2-1.3-0.3-2.7-0.3c-0.9,0-1.8,0-2.6-0.1c-1,0.6-1.5,1.4-1.5,2.5c0,1.5,0.9,2.3,2.6,2.3c1.3,0,2.5-0.3,3.3-0.8
	C149.8,201.5,150.3,200.7,150.3,199.6L150.3,199.6z M149.9,188.5c0-0.7-0.2-1.3-0.7-1.6c-0.5-0.4-1-0.6-1.5-0.6
	c-0.7,0-1.4,0.3-1.9,0.8c-0.5,0.5-0.8,1.2-0.8,2c0,0.7,0.2,1.2,0.7,1.6c0.4,0.4,1,0.5,1.5,0.5c0.7,0,1.3-0.2,1.9-0.8
	C149.7,190,149.9,189.3,149.9,188.5L149.9,188.5z M176.1,179.9l-0.4,2.9c-1.7-0.1-3.4-0.2-4.9-0.2c-0.1,0.8-0.3,2.8-0.6,5.8
	c-0.4,3.5-0.6,6.6-0.7,9.3h-3.8c0.2-1.3,0.6-4.4,1.2-9.3c0.2-2.1,0.4-4,0.5-5.8c-1.2,0-2.9,0.1-5.1,0.2l0.4-3H176.1L176.1,179.9z
	 M188.3,187.6c0,2.7-2.9,4.1-8.8,4.2c0,1.2,0.2,2.1,0.7,2.7c0.4,0.6,1.2,0.9,2.3,0.9c1.5,0,3-0.5,4.7-1.4l-0.4,2.7
	c-1.4,0.9-3.1,1.4-5.2,1.4c-1.9,0-3.2-0.6-4.1-1.7c-0.9-1.1-1.3-2.6-1.3-4.4c0-2.4,0.7-4.3,2.2-5.7c1.5-1.4,3.3-2.2,5.3-2.2
	c1.4,0,2.5,0.3,3.3,0.9C187.9,185.6,188.3,186.5,188.3,187.6L188.3,187.6z M185.2,187.8c0-0.9-0.7-1.3-2-1.3c-0.8,0-1.5,0.3-2.2,0.9
	c-0.7,0.6-1.1,1.4-1.4,2.5C183.4,189.8,185.2,189.1,185.2,187.8L185.2,187.8z M200.3,184.6l-0.7,2.8c-0.8-0.3-1.6-0.4-2.6-0.4
	c-1.2,0-2.1,0.5-2.8,1.4c-0.7,0.9-1,2-1,3.2c0,2.5,1,3.8,2.9,3.8c1.1,0,2.3-0.4,3.6-1.2l-0.4,2.7c-1.1,0.8-2.5,1.2-4.1,1.2
	c-1.9,0-3.3-0.6-4.2-1.8c-0.9-1.2-1.3-2.6-1.3-4.4c0-2.1,0.7-3.9,2.2-5.4c1.4-1.5,3.3-2.2,5.7-2.2
	C198.6,184.3,199.5,184.4,200.3,184.6L200.3,184.6z M214.4,188.4c0,0.8-0.1,2.3-0.4,4.5c-0.2,2.2-0.4,3.8-0.4,4.9l-3.5,0.1
	c0-0.4,0.1-1.7,0.4-3.9c0.3-2.2,0.5-3.7,0.5-4.6c0-0.9-0.1-1.6-0.4-2c-0.3-0.4-0.7-0.5-1.4-0.5c-0.8,0-1.6,0.5-2.3,1.6
	c-0.7,1.1-1.2,2.4-1.4,4c-0.2,2-0.4,3.7-0.5,5.3l-3.5,0.1c0.2-1.2,0.6-4.6,1.2-10.3c0.4-3.5,0.5-6.5,0.5-9.1l3.8-0.2
	c0,0.4-0.2,1.8-0.5,4.2c-0.3,2.4-0.6,4-0.7,4.7h0.2c1.1-1.9,2.7-2.9,4.7-2.9C213.2,184.3,214.4,185.7,214.4,188.4L214.4,188.4z
	 M229.3,188.4c0,0.8-0.1,2.3-0.4,4.5c-0.2,2.2-0.4,3.8-0.4,4.9l-3.5,0.1c0-0.4,0.1-1.7,0.5-3.9c0.3-2.2,0.4-3.7,0.4-4.6
	c0-0.9-0.1-1.6-0.4-2c-0.3-0.4-0.7-0.5-1.4-0.5c-0.8,0-1.6,0.5-2.3,1.6c-0.7,1.1-1.2,2.4-1.4,4c-0.2,2-0.4,3.7-0.4,5.3l-3.4,0.1
	c0.6-4.7,1-7.9,1-9.6c0-1-0.1-2.1-0.2-3.5l3.4-0.3c0.1,0.8,0.1,1.7,0.1,2.7h0.2c1.1-1.9,2.7-2.9,4.7-2.9
	C228.2,184.3,229.3,185.7,229.3,188.4L229.3,188.4z M244.8,190.2c0,2.2-0.7,4.1-2.1,5.7c-1.4,1.6-3.2,2.3-5.5,2.3
	c-1.6,0-2.9-0.6-4-1.7c-1.1-1.1-1.7-2.6-1.7-4.5c0-2.2,0.7-4.1,2.1-5.6c1.4-1.5,3.3-2.3,5.5-2.3c1.6,0,2.9,0.6,4,1.7
	C244.3,186.9,244.8,188.4,244.8,190.2L244.8,190.2z M241.3,190.5c0-1.1-0.2-2.1-0.7-2.8c-0.5-0.7-1.2-1.1-2-1.1
	c-1.1,0-2,0.5-2.6,1.6c-0.7,1.1-1,2.3-1,3.6c0,1.1,0.2,2.1,0.7,2.8c0.5,0.7,1.2,1.1,2,1.1c1.1,0,2-0.5,2.6-1.6
	C241,193.1,241.3,191.9,241.3,190.5L241.3,190.5z M252.2,178.3c0,0.5-0.1,1.7-0.4,3.6c-0.3,1.9-0.5,3.8-0.7,5.7
	c-0.4,4.2-0.7,7.6-0.9,10.1l-3.6,0.2c0-0.2,0.1-1.3,0.4-3.5c0.3-2.2,0.6-4.5,0.8-6.8c0.4-3.6,0.6-6.6,0.6-9.1L252.2,178.3
	L252.2,178.3z M266.9,190.2c0,2.2-0.7,4.1-2.1,5.7c-1.4,1.6-3.2,2.3-5.5,2.3c-1.6,0-2.9-0.6-4-1.7c-1.1-1.1-1.7-2.6-1.7-4.5
	c0-2.2,0.7-4.1,2.1-5.6c1.4-1.5,3.3-2.3,5.5-2.3c1.6,0,2.9,0.6,4,1.7C266.4,186.9,266.9,188.4,266.9,190.2L266.9,190.2z
	 M263.5,190.5c0-1.1-0.2-2.1-0.7-2.8c-0.5-0.7-1.2-1.1-2-1.1c-1.1,0-2,0.5-2.6,1.6c-0.7,1.1-1,2.3-1,3.6c0,1.1,0.2,2.1,0.7,2.8
	c0.5,0.7,1.2,1.1,2,1.1c1.1,0,2-0.5,2.6-1.6C263.1,193.1,263.5,191.9,263.5,190.5L263.5,190.5z M283,182.8l-0.5,2.5
	c-1.4,0-2.2,0.2-2.6,0.6l0,0.2c0.4,0.7,0.6,1.3,0.6,2.1c0,1.6-0.6,2.8-1.8,3.7c-1.2,0.9-2.6,1.3-4.3,1.3c-0.9,0-1.6-0.1-2.1-0.2
	c-0.4,0.4-0.7,0.8-0.7,1.2c0,0.5,0.2,0.8,0.6,0.9c0.4,0.1,1.9,0.2,4.5,0.2c2.8,0,4.2,1,4.2,3.1c0,1.9-0.8,3.5-2.4,4.6
	c-1.6,1.2-3.6,1.7-5.8,1.7c-1.8,0-3.1-0.3-4-0.9c-0.9-0.6-1.3-1.5-1.3-2.6c0-1.6,0.9-2.8,2.6-3.7l0-0.2c-0.6-0.4-0.9-1-0.9-1.8
	c0-1,0.6-2,1.8-2.9l0-0.2c-0.5-0.3-0.9-0.7-1.3-1.3c-0.4-0.6-0.5-1.2-0.5-2c0-1.6,0.6-2.9,1.9-3.7c1.3-0.8,2.8-1.2,4.5-1.2
	c1.3,0,2.4,0.3,3.3,0.9h0.2c0.5-1.8,1.3-2.7,2.7-2.7C282.1,182.5,282.6,182.6,283,182.8L283,182.8z M277.6,199.6
	c0-0.5-0.2-0.9-0.6-1.1c-0.4-0.2-1.3-0.3-2.7-0.3c-0.9,0-1.8,0-2.6-0.1c-1,0.6-1.5,1.4-1.5,2.5c0,1.5,0.9,2.3,2.6,2.3
	c1.3,0,2.5-0.3,3.3-0.8C277.2,201.5,277.6,200.7,277.6,199.6L277.6,199.6z M277.3,188.5c0-0.7-0.2-1.3-0.7-1.6
	c-0.5-0.4-1-0.6-1.5-0.6c-0.7,0-1.4,0.3-1.9,0.8c-0.5,0.5-0.8,1.2-0.8,2c0,0.7,0.2,1.2,0.7,1.6c0.4,0.4,1,0.5,1.5,0.5
	c0.7,0,1.3-0.2,1.9-0.8C277,190,277.3,189.3,277.3,188.5L277.3,188.5z M295.7,184.6l-3.5,0.2c0,1.3-0.5,3.2-1.4,5.6
	c-1,2.4-1.5,3.8-1.5,4.1H289c0-0.8-0.3-2.4-0.8-4.6c-0.5-2.3-0.8-4-0.8-5.3l-3.9,0.1c0,1,0.6,3,1.7,6.1c1.1,3.1,1.7,5.3,1.7,6.5
	c0,1.1-0.4,2.1-1.3,2.8c-0.8,0.7-1.8,1.1-3,1.1v2.6c1.9,0,3.3-0.4,4.4-1.3c1.1-0.9,2-2.4,2.8-4.7c0.3-0.8,1.3-2.8,3.1-6.2
	C294.8,188.2,295.7,185.9,295.7,184.6L295.7,184.6z M315,180.1l-0.8,3c-1.1-0.4-2.4-0.7-3.7-0.7c-2.2,0-3.3,0.7-3.3,2
	c0,0.5,0.2,1,0.7,1.4c0.4,0.3,1.2,0.8,2.5,1.3c2.8,1.3,4.2,3,4.2,5.4c0,3.8-2.6,5.8-7.9,5.8c-1.7,0-3.2-0.2-4.6-0.6l1-3.1
	c1.3,0.5,2.6,0.8,3.9,0.8c1.2,0,2.1-0.1,2.6-0.3c1-0.3,1.5-0.9,1.5-1.9c0-0.6-0.3-1.1-0.8-1.6c-0.5-0.4-1.4-1-2.7-1.6
	c-2.5-1.2-3.8-2.9-3.8-5c0-1.9,0.7-3.3,2-4.1c1.3-0.8,3-1.3,5-1.3C312.5,179.6,313.9,179.8,315,180.1L315,180.1z M328.9,187.6
	c0,2.7-2.9,4.1-8.8,4.2c0,1.2,0.2,2.1,0.7,2.7c0.5,0.6,1.2,0.9,2.3,0.9c1.5,0,3-0.5,4.7-1.4l-0.4,2.7c-1.4,0.9-3.1,1.4-5.2,1.4
	c-1.9,0-3.2-0.6-4.1-1.7c-0.9-1.1-1.3-2.6-1.3-4.4c0-2.4,0.7-4.3,2.2-5.7c1.5-1.4,3.3-2.2,5.3-2.2c1.4,0,2.5,0.3,3.3,0.9
	C328.5,185.6,328.9,186.5,328.9,187.6L328.9,187.6z M325.9,187.8c0-0.9-0.7-1.3-2-1.3c-0.8,0-1.5,0.3-2.2,0.9
	c-0.7,0.6-1.1,1.4-1.4,2.5C324,189.8,325.9,189.1,325.9,187.8L325.9,187.8z M340.3,184.6l-1.1,3.2c-0.6-0.2-1.3-0.3-1.9-0.3
	c-1.7,0-2.6,0.9-2.8,2.7c-0.3,2.8-0.5,5.3-0.7,7.5l-3.4,0.1c0.6-4.7,1-7.9,1-9.6c0-1-0.1-2.1-0.2-3.5l3.4-0.3
	c0.1,0.6,0.1,1.2,0.1,1.8h0.2c0.9-1.3,2.1-2,3.4-2C338.8,184.3,339.5,184.4,340.3,184.6L340.3,184.6z M353.3,184.6c0,0.8-1,3-3,6.8
	c-2,3.7-3,5.9-3.1,6.4h-3.6c0-1.3-0.5-3.6-1.4-6.7c-0.9-3.1-1.4-5.3-1.4-6.3l3.7-0.1c0,0.9,0.3,2.5,0.8,5c0.5,2.4,0.8,4,0.8,4.8h0.2
	c0-0.3,0.6-1.8,1.7-4.4c1.1-2.6,1.7-4.3,1.7-5.2L353.3,184.6L353.3,184.6z M359,184.5c0,0.2-0.1,1.2-0.3,2.8c-0.2,1.6-0.4,3-0.5,4
	c-0.2,1.9-0.4,4.1-0.5,6.5l-3.5,0.1c0.2-1.2,0.5-3.4,0.9-6.6c0.2-1.7,0.3-3.4,0.3-4.9c0-0.6,0-1.1-0.1-1.5L359,184.5L359,184.5z
	 M360.1,180.3c0,0.7-0.2,1.3-0.7,1.8c-0.5,0.5-1.1,0.8-1.8,0.8c-0.6,0-1-0.2-1.3-0.5c-0.3-0.3-0.5-0.8-0.5-1.3
	c0-0.7,0.2-1.3,0.7-1.8c0.5-0.5,1.1-0.7,1.8-0.7C359.5,178.6,360.1,179.1,360.1,180.3L360.1,180.3z M371.5,184.6l-0.7,2.8
	c-0.8-0.3-1.6-0.4-2.6-0.4c-1.2,0-2.1,0.5-2.8,1.4c-0.7,0.9-1,2-1,3.2c0,2.5,1,3.8,2.9,3.8c1.1,0,2.3-0.4,3.6-1.2l-0.4,2.7
	c-1.1,0.8-2.5,1.2-4.1,1.2c-1.9,0-3.3-0.6-4.2-1.8c-0.9-1.2-1.3-2.6-1.3-4.4c0-2.1,0.7-3.9,2.2-5.4c1.4-1.5,3.3-2.2,5.7-2.2
	C369.7,184.3,370.7,184.4,371.5,184.6L371.5,184.6z M384.8,187.6c0,2.7-2.9,4.1-8.8,4.2c0,1.2,0.2,2.1,0.7,2.7
	c0.4,0.6,1.2,0.9,2.3,0.9c1.5,0,3-0.5,4.7-1.4l-0.4,2.7c-1.4,0.9-3.1,1.4-5.2,1.4c-1.9,0-3.2-0.6-4.1-1.7c-0.9-1.1-1.3-2.6-1.3-4.4
	c0-2.4,0.7-4.3,2.2-5.7c1.5-1.4,3.3-2.2,5.3-2.2c1.4,0,2.5,0.3,3.3,0.9C384.4,185.6,384.8,186.5,384.8,187.6L384.8,187.6z
	 M381.8,187.8c0-0.9-0.7-1.3-2-1.3c-0.8,0-1.5,0.3-2.2,0.9c-0.7,0.6-1.1,1.4-1.4,2.5C379.9,189.8,381.8,189.1,381.8,187.8
	L381.8,187.8z M395.7,184.5l-0.7,2.7c-1-0.3-2-0.5-3.1-0.5c-1.4,0-2.1,0.4-2.1,1.3c0,0.6,0.7,1.1,2,1.7c2.4,1,3.6,2.3,3.6,3.9
	c0,3-2.1,4.5-6.3,4.5c-1.4,0-2.6-0.1-3.6-0.4l0.7-2.7c1,0.4,2.1,0.5,3.2,0.5c1.9,0,2.9-0.4,2.9-1.3c0-0.6-0.7-1.2-2-1.8
	c-1.1-0.5-1.9-1-2.5-1.4c-0.7-0.7-1.1-1.5-1.1-2.4c0-1.5,0.5-2.5,1.6-3.2c1.1-0.7,2.4-1.1,3.9-1.1
	C393.7,184.2,394.9,184.3,395.7,184.5z"/>
<g>
	<path class="st1" d="M55.7,136.3H36.2c-3.1,0-5.7-2.5-5.7-5.7V39.8c0-3.1,2.5-5.7,5.7-5.7h19.4c3.1,0,5.7,2.5,5.7,5.7v90.8
		C61.3,133.8,58.8,136.3,55.7,136.3z M36.2,36.2c-2,0-3.7,1.6-3.7,3.7v90.8c0,2,1.6,3.7,3.7,3.7h19.4c2,0,3.7-1.6,3.7-3.7V39.8
		c0-2-1.6-3.7-3.7-3.7H36.2z"/>
	<path class="st1" d="M132,136.3H64.7c-3,0-5.4-2.4-5.4-5.4V39.6c0-3,2.4-5.4,5.4-5.4H132c16.8,0,30.5,13.7,30.5,30.5v41.2
		C162.5,122.6,148.8,136.3,132,136.3z M64.7,36.2c-1.9,0-3.4,1.5-3.4,3.4v91.3c0,1.9,1.5,3.4,3.4,3.4H132
		c15.7,0,28.5-12.8,28.5-28.5V64.6c0-15.7-12.8-28.5-28.5-28.5H64.7z M114.6,113.8H86.2V58.2h28.5c11.7,0,21.3,9.5,21.3,21.3v13
		C135.9,104.2,126.4,113.8,114.6,113.8z M88.2,111.8h26.5c10.6,0,19.3-8.6,19.3-19.3v-13c0-10.6-8.6-19.3-19.3-19.3H88.2V111.8z"/>
	<path class="st1" d="M368,136.3H191c-17.3-0.1-29.1-13.9-30.4-27.2c0-0.2-0.1-0.5-0.1-0.8l0-44c0.4-17.2,13.5-30.1,30.5-30.1h41.7
		c2.5,0,4.6,2.1,4.6,4.6v15c0,2.5-2.1,4.6-4.6,4.6h-24.5c-16.3,0-19.7,13.7-19.7,25.2c0,0.9,0,1.9-0.1,3c-0.2,6.9-0.4,17.3,4.6,22.4
		c2,2.1,4.7,3.1,8.2,3.1H368c2.5,0,4.6,2.1,4.6,4.6v15C372.6,134.3,370.5,136.3,368,136.3z M191,36.2c-15.9,0-28.1,12.1-28.5,28.1
		l0,44c0,0.2,0,0.4,0,0.5c1.3,12.5,12.2,25.4,28.4,25.5h177c1.4,0,2.6-1.2,2.6-2.6v-15c0-1.4-1.2-2.6-2.6-2.6H201.3
		c-4,0-7.2-1.2-9.6-3.7c-5.6-5.8-5.3-16.7-5.2-23.9c0-1.1,0.1-2.1,0.1-2.9c0-17.8,7.5-27.2,21.7-27.2h24.5c1.4,0,2.6-1.2,2.6-2.6
		v-15c0-1.4-1.2-2.6-2.6-2.6H191z"/>
</g>
</svg>
