<svg xmlns="http://www.w3.org/2000/svg" width="97" height="97" viewBox="0 0 97 97"><defs><style>.a{fill:#00a4e4;}</style></defs><g transform="translate(-1 -1)"><path class="a" d="M96.435,45.161H94.871V40.468A1.565,1.565,0,0,0,93.306,38.9H91.742V21.694A4.694,4.694,0,0,0,87.048,17h-21.9a4.694,4.694,0,0,0-4.694,4.694V38.9H58.887a1.565,1.565,0,0,0-1.565,1.565v4.694H54.194V31.081a1.565,1.565,0,0,0-1.565-1.565H40.113a1.565,1.565,0,0,0-1.565,1.565v1.565H36.984a4.694,4.694,0,1,0,0,9.387h1.565v3.129H22.9V40.468A1.565,1.565,0,0,0,21.339,38.9H19.774V34.21a1.565,1.565,0,0,0-1.565-1.565H2.565A1.565,1.565,0,0,0,1,34.21v6.258a1.565,1.565,0,0,0,1.565,1.565H4.129v3.129H2.565A1.565,1.565,0,0,0,1,46.726v9.387a1.565,1.565,0,0,0,1.565,1.565H7.258V87.4a1.565,1.565,0,0,0,1.565,1.565H18.21A1.565,1.565,0,0,0,19.774,87.4V85.839H79.226V87.4a1.565,1.565,0,0,0,1.565,1.565h9.387A1.565,1.565,0,0,0,91.742,87.4V57.677h4.694A1.565,1.565,0,0,0,98,56.113V46.726A1.565,1.565,0,0,0,96.435,45.161ZM63.581,21.694a1.565,1.565,0,0,1,1.565-1.565h21.9a1.565,1.565,0,0,1,1.565,1.565V38.9H63.581ZM60.452,42.032h31.29v3.129H60.452ZM36.984,38.9a1.565,1.565,0,1,1,0-3.129h1.565V38.9Zm4.694-6.258h9.387V45.161H41.677ZM4.129,35.774H16.645V38.9H4.129Zm3.129,6.258H19.774v3.129H7.258Zm3.129,43.806V57.677h6.258V85.839Zm9.387-3.129V57.677H79.226V82.71Zm68.839,3.129H82.355V57.677h6.258Zm6.258-31.29H4.129V48.29H94.871Z" transform="translate(0 9.032)"/><path class="a" d="M51.258,21a6.258,6.258,0,1,0,6.258,6.258A6.258,6.258,0,0,0,51.258,21Zm0,9.387a3.129,3.129,0,1,1,3.129-3.129A3.129,3.129,0,0,1,51.258,30.387Z" transform="translate(24.839 11.29)"/><path class="a" d="M28.488,21.258a2.222,2.222,0,0,1,0,3.129l-2.034,2.018,2.222,2.222,2.018-2.034a5.319,5.319,0,0,0,0-7.541l-.923-.923a2.237,2.237,0,0,1-.641-1.565V15H26v1.565a5.257,5.257,0,0,0,1.565,3.77Z" transform="translate(14.113 7.903)"/><path class="a" d="M32.488,21.258a2.222,2.222,0,0,1,0,3.129l-2.034,2.018,2.222,2.222,2.018-2.034a5.319,5.319,0,0,0,0-7.541l-.923-.923a2.237,2.237,0,0,1-.641-1.565V15H30v1.565a5.257,5.257,0,0,0,1.565,3.77Z" transform="translate(16.371 7.903)"/><path class="a" d="M18.21,35.419A17.21,17.21,0,1,0,1,18.21a17.21,17.21,0,0,0,17.21,17.21ZM7.258,9.433,9.276,11.5,11.5,9.276,9.433,7.258a13.909,13.909,0,0,1,7.212-3.035V7.258h3.129V4.223a13.909,13.909,0,0,1,7.212,3.035L24.921,9.276,27.143,11.5l2.018-2.065A13.909,13.909,0,0,1,32.2,16.645H29.161v3.129H32.2a13.909,13.909,0,0,1-3.035,7.212l-2.05-2.065L24.89,27.143l2.1,2.018A13.909,13.909,0,0,1,19.774,32.2V29.161H16.645V32.2a13.909,13.909,0,0,1-7.212-3.035l2.065-2.05-2.222-2.19L7.258,26.987a13.909,13.909,0,0,1-3.035-7.212H7.258V16.645H4.223A13.909,13.909,0,0,1,7.258,9.433Z"/><path class="a" d="M17.712,22.191l2.222-2.222-5.8-5.789V7H11v7.823a1.565,1.565,0,0,0,.454,1.111Z" transform="translate(5.645 3.387)"/></g></svg>