<svg xmlns="http://www.w3.org/2000/svg" width="106.788" height="106.788" viewBox="0 0 106.788 106.788"><defs><style>.a{fill:#00a4e4;}</style></defs><g transform="translate(0 0)"><path class="a" d="M204.057,27.79l12.68-10.566h16.6V0H192V17.224h12.057Zm-8.612-14.011V3.445h34.448V13.779h-14.4L207.5,20.436V13.779Zm0,0" transform="translate(-150.663)"/><path class="a" d="M224,32h3.445v3.445H224Zm0,0" transform="translate(-175.773 -25.111)"/><path class="a" d="M256,32h13.779v3.445H256Zm0,0" transform="translate(-200.884 -25.111)"/><path class="a" d="M336,32h3.445v3.445H336Zm0,0" transform="translate(-263.66 -25.111)"/><path class="a" d="M87.677,197.507l-1.393-13.943a12.064,12.064,0,0,0,10.169-11.893V149.28h-6.89V146.9a6.2,6.2,0,0,0-3.356-5.522,10.294,10.294,0,0,0,3.356-7.6v-3.445a10.334,10.334,0,1,0-20.669,0v3.445a10.342,10.342,0,0,0,6.809,9.7l-9.244,9.244H56.8a6.907,6.907,0,0,0-4.959-6.173l-7.06-2.015v-3.076a10.3,10.3,0,0,0,3.445-7.682v-3.445a10.334,10.334,0,0,0-20.669,0v3.445A10.3,10.3,0,0,0,31,141.461v3.078l-7.06,2.015a6.916,6.916,0,0,0-5,6.625v6.436h-6.89v10.334H15.5v27.558H0v3.445H106.788v-3.445ZM72.34,169.949v-7.9l12.2-12.2a5.4,5.4,0,0,0,1.525-3.3,2.8,2.8,0,0,1,.05.358v21.326a5.174,5.174,0,0,1-5.167,5.167H67.173v-3.445Zm-5.167,13.779h8.776l1.378,13.779H67.173Zm12.238,0h3.428l1.378,13.779H80.788Zm10.154-15.5v-15.5h3.445v18.946a8.622,8.622,0,0,1-8.612,8.612H67.173v-3.445H80.952A8.622,8.622,0,0,0,89.564,168.227ZM72.34,133.779v-3.445a6.89,6.89,0,1,1,13.779,0v3.445a6.89,6.89,0,0,1-13.779,0ZM67.886,156.17l11.492-11.492a1.932,1.932,0,0,1,2.732,2.732l-12.2,12.2H51.671a1.722,1.722,0,0,1,0-3.445ZM31,130.334a6.89,6.89,0,0,1,13.779,0v3.445a6.89,6.89,0,0,1-13.779,0Zm6.89,13.779a10.284,10.284,0,0,0,3.445-.6v1.85a4.4,4.4,0,0,1-3.445,2.2,4.4,4.4,0,0,1-3.445-2.2v-1.85A10.284,10.284,0,0,0,37.892,144.113Zm-15.5,9.065a3.46,3.46,0,0,1,2.5-3.313l7.1-2.027A7.5,7.5,0,0,0,37.892,151a7.5,7.5,0,0,0,5.908-3.166l7.1,2.027a3.433,3.433,0,0,1,2.424,2.859H51.671a5.174,5.174,0,0,0-5.167,5.167,5.1,5.1,0,0,0,.317,1.722H22.39ZM15.5,163.06H68.895V166.5H15.5Zm3.445,13.779h5.167v-3.445H18.946v-3.445H63.728v3.445H27.558v3.445h36.17v20.669h-4.1l-3.445-6.89H26.493l-3.445,6.89h-4.1Zm36.828,20.669H26.9l1.722-3.445H54.051Zm0,0" transform="translate(0 -94.164)"/></g></svg>