<svg xmlns="http://www.w3.org/2000/svg" width="108.334" height="86.025" viewBox="0 0 108.334 86.025"><defs><style>.a{fill:#00a4e4;}</style></defs><g transform="translate(0 -19.975)"><g transform="translate(51.996 101.768)"><path class="a" d="M249.352,492.62a2.114,2.114,0,1,0,.62,1.5A2.131,2.131,0,0,0,249.352,492.62Z" transform="translate(-245.74 -492)"/></g><g transform="translate(0 19.975)"><path class="a" d="M97.027,152.333l-7.058-1.686v-2.8A13.964,13.964,0,0,0,96.5,136.036v-7.885A13.957,13.957,0,0,0,72.082,118.9a18.654,18.654,0,0,0-17.893-13.462h0a18.653,18.653,0,0,0-17.9,13.5,13.956,13.956,0,0,0-24.446,9.215v7.885a13.964,13.964,0,0,0,6.527,11.811v2.8l-7.058,1.686A14.682,14.682,0,0,0,0,166.659v14.223A2.116,2.116,0,0,0,2.116,183H19.035v6.348a2.116,2.116,0,0,0,2.116,2.116H44.363a2.116,2.116,0,1,0,0-4.232H34.917v-9.312a2.116,2.116,0,0,0-4.232,0v9.313H23.267v-9.547a15.4,15.4,0,0,1,11.852-15.028l10.407-2.494,6.7,15.234a2.116,2.116,0,0,0,1.937,1.264h0A2.116,2.116,0,0,0,56.1,175.4l6.689-15.211,10.376,2.479a15.4,15.4,0,0,1,11.863,15.03v2.361a2.12,2.12,0,0,0,0,1.655v5.52H77.648v-9.312a2.116,2.116,0,0,0-4.232,0v9.313H63.054a2.116,2.116,0,1,0,0,4.232H87.14a2.116,2.116,0,0,0,2.116-2.116V183h16.963a2.116,2.116,0,0,0,2.116-2.116V166.659A14.682,14.682,0,0,0,97.027,152.333Zm-14.5-33.915a9.745,9.745,0,0,1,9.734,9.733v.737H86.211a26.143,26.143,0,0,1-13.023-3.476A9.752,9.752,0,0,1,82.53,118.418ZM72.8,135.691c.007-.216.013-5.689.013-5.689a30.376,30.376,0,0,0,13.4,3.118h6.052v2.917a9.734,9.734,0,0,1-19.467,0v-.345Zm-33-11.634a14.389,14.389,0,0,1,28.777,0v.276l-7.853-4.614a2.116,2.116,0,0,0-2.694.465,15.979,15.979,0,0,1-12.277,5.729H39.8Zm-23.73,4.618v-.524a9.734,9.734,0,0,1,19.075-2.739,26.145,26.145,0,0,1-13.023,3.476H16.07Zm0,7.361v-2.917h6.052A30.376,30.376,0,0,0,35.538,130v6.041a9.734,9.734,0,0,1-19.467,0Zm2.965,41.647v1.083H12.7v-9.4a2.116,2.116,0,1,0-4.232,0v9.4H4.232V166.659a10.464,10.464,0,0,1,8.059-10.21l6.707-1.6,4.377,10.485A19.643,19.643,0,0,0,19.035,177.683ZM25.8,160.166l-3.213-7.7c0-.051.007-.1.007-.152v-2.691a13.873,13.873,0,0,0,6.4,0v2.554c0,.04,0,.08,0,.119,0,.067.006.133.013.2Zm8.329-1.626a19.887,19.887,0,0,0-3.577,1.23l2.061-4.935,6.708,1.607a10.489,10.489,0,0,1,1.518.49Zm10.5-4.41a14.693,14.693,0,0,0-4.324-1.8l-7.083-1.7v-2.775A14.065,14.065,0,0,0,37.6,143.5a18.754,18.754,0,0,0,7.034,7.521Zm14.807,3.141-5.284,12.015-5.292-12.039v-4.364a18.635,18.635,0,0,0,10.575.02v4.367Zm-5.254-7.843A14.4,14.4,0,0,1,39.8,135.04v-4.894h5.954a20.194,20.194,0,0,0,14.3-5.912l8.51,5v6.3A14.4,14.4,0,0,1,54.189,149.428Zm9.486,1.628h0a18.753,18.753,0,0,0,7.082-7.524,14.073,14.073,0,0,0,4.349,4.323v2.775l-7.083,1.7a14.7,14.7,0,0,0-4.349,1.818v-3.089Zm10.47,7.491-6.692-1.6a10.506,10.506,0,0,1,1.557-.506l6.692-1.6L77.77,159.8A19.892,19.892,0,0,0,74.144,158.548Zm5.18-6.015a2.115,2.115,0,0,0,.015-.231c0-.02,0-.04,0-.059v-2.613a13.869,13.869,0,0,0,6.4,0v2.691c0,.039,0,.076,0,.114l-3.231,7.736ZM104.1,178.766H99.87v-9.4a2.116,2.116,0,1,0-4.232,0v9.4H89.256v-1.073a19.642,19.642,0,0,0-4.327-12.337l4.391-10.514,6.723,1.606a10.464,10.464,0,0,1,8.059,10.21Z" transform="translate(0 -105.437)"/></g><g transform="translate(44.954 46.596)"><path class="a" d="M216.072,231.87a2.114,2.114,0,1,0,.62,1.5A2.131,2.131,0,0,0,216.072,231.87Z" transform="translate(-212.46 -231.25)"/></g><g transform="translate(59.103 46.596)"><path class="a" d="M282.942,231.87a2.114,2.114,0,1,0,.62,1.5A2.131,2.131,0,0,0,282.942,231.87Z" transform="translate(-279.33 -231.25)"/></g><g transform="translate(49.365 53.719)"><path class="a" d="M242.181,265.533a2.116,2.116,0,0,0-2.993,0,1.606,1.606,0,0,1-2.269,0,2.116,2.116,0,1,0-2.992,2.993,5.843,5.843,0,0,0,8.254,0A2.116,2.116,0,0,0,242.181,265.533Z" transform="translate(-233.307 -264.913)"/></g></g></svg>