<svg xmlns="http://www.w3.org/2000/svg" width="107" height="107.025" viewBox="0 0 107 107.025"><defs><style>.a{fill:#00a4e4;}</style></defs><g transform="translate(10.087 20.473)"><g transform="translate(0 22.298)"><path class="a" d="M445.8,208.788a2.091,2.091,0,1,0-2.055-1.716A2.111,2.111,0,0,0,445.8,208.788Z" transform="translate(-443.711 -204.612)"/></g><g transform="translate(19.26)"><path class="a" d="M245.2,127.439a14.749,14.749,0,1,0-14.747-14.749A14.765,14.765,0,0,0,245.2,127.439Zm0-25.317a10.568,10.568,0,1,1-10.566,10.568A10.579,10.579,0,0,1,245.2,102.122Z" transform="translate(-230.451 -97.941)"/></g></g><path class="a" d="M139.777,90.8a2.09,2.09,0,0,1,2.662,1.285,29.622,29.622,0,0,0,7.083,11.261,30.145,30.145,0,0,0,3.562,3.049V97.013a6.317,6.317,0,0,1,6.31-6.311h22.432a6.317,6.317,0,0,1,6.31,6.311v9.418A29.851,29.851,0,0,0,191.7,61.164a29.672,29.672,0,0,0-21.1-8.752h-.014A29.825,29.825,0,0,0,142.4,72.488a2.09,2.09,0,0,1-3.953-1.361,34.006,34.006,0,0,1,32.134-22.894h.017a34.039,34.039,0,0,1,16.46,63.832h0a34.06,34.06,0,0,1-16.412,4.214h-.033a34.1,34.1,0,0,1-16.443-4.245h0a34.183,34.183,0,0,1-15.671-18.569,2.09,2.09,0,0,1,1.285-2.662Zm44.179,18.169V97.013a2.132,2.132,0,0,0-2.129-2.13H159.394a2.132,2.132,0,0,0-2.129,2.13v11.928A30.089,30.089,0,0,0,183.955,108.97Z" transform="translate(-126.516 -38.15)"/><path class="a" d="M44.159,0A44.082,44.082,0,0,1,79.993,69.777L84,73.787l1-1a2.091,2.091,0,0,1,2.957,0l6.079,6.08,0,0,9.9,9.9a10.693,10.693,0,1,1-15.121,15.123l-9.9-9.9h0l-6.079-6.079a2.091,2.091,0,0,1,0-2.956l1-1-4.011-4.011A44.093,44.093,0,1,1,44.159,0ZM91.77,100.937a6.512,6.512,0,1,0,9.209-9.211L92.556,83.3l-4.6,4.6-4.609,4.61ZM80.391,89.557l4.6-4.6,4.609-4.61-3.123-3.123-9.209,9.21ZM76.789,81l2.128-2.128,2.13-2.13-3.668-3.669a44.493,44.493,0,0,1-4.258,4.258Zm-32.63,3.022A39.922,39.922,0,1,0,4.243,44.1,39.964,39.964,0,0,0,44.159,84.024Z" transform="translate(-0.062)"/></svg>