<svg xmlns="http://www.w3.org/2000/svg" width="89.973" height="89.995" viewBox="0 0 89.973 89.995"><defs><style>.a{fill:#00a4e4;}</style></defs><g transform="translate(-2 -2)"><path class="a" d="M90.473,57.483h-12a1.5,1.5,0,0,1,0-3h10.5v-15H78.732A1.5,1.5,0,0,1,77.289,38.4a30.741,30.741,0,0,0-2.8-6.748,1.5,1.5,0,0,1,.246-1.8L81.98,22.6,71.369,11.993l-7.247,7.252a1.5,1.5,0,0,1-1.8.246,30.778,30.778,0,0,0-6.748-2.8,1.5,1.5,0,0,1-1.09-1.447V5h-15V15.241A1.5,1.5,0,0,1,38.4,16.684a30.741,30.741,0,0,0-6.748,2.8,1.5,1.5,0,0,1-1.8-.246L22.6,11.993,11.993,22.6l7.252,7.247a1.5,1.5,0,0,1,.246,1.8,30.82,30.82,0,0,0-2.8,6.748,1.5,1.5,0,0,1-1.447,1.09H5v15H15.241a1.5,1.5,0,1,1,0,3H3.5a1.5,1.5,0,0,1-1.5-1.5V37.989a1.5,1.5,0,0,1,1.5-1.5H14.127a33.774,33.774,0,0,1,2.2-5.31L8.812,23.664a1.5,1.5,0,0,1,0-2.12L21.544,8.812a1.5,1.5,0,0,1,2.12,0l7.517,7.517a33.7,33.7,0,0,1,5.308-2.2V3.5a1.5,1.5,0,0,1,1.5-1.5H55.984a1.5,1.5,0,0,1,1.5,1.5V14.127a33.7,33.7,0,0,1,5.308,2.2l7.517-7.517a1.5,1.5,0,0,1,2.12,0L85.16,21.544a1.5,1.5,0,0,1,0,2.12L77.643,31.18a33.919,33.919,0,0,1,2.2,5.31H90.473a1.5,1.5,0,0,1,1.5,1.5V55.984a1.5,1.5,0,0,1-1.5,1.5Z"/><path class="a" d="M83.476,74.195V63.485a1.5,1.5,0,0,0-.628-1.221l-9.868-7.049V40.992a26.992,26.992,0,0,0-53.984,0V55.215L9.127,62.263A1.5,1.5,0,0,0,8.5,63.485v10.71a6,6,0,1,0,3,0V64.257l9.869-7.048a1.5,1.5,0,0,0,.628-1.222v-15a23.993,23.993,0,0,1,47.985,0v15a1.5,1.5,0,0,0,.628,1.221l9.868,7.049v9.937a6,6,0,1,0,3,0ZM13,79.98a3,3,0,1,1-3-3A3,3,0,0,1,13,79.98Zm68.979,3a3,3,0,1,1,3-3A3,3,0,0,1,81.977,82.979Z" transform="translate(0.999 5.995)"/><path class="a" d="M57.488,59.2V37.995a17.995,17.995,0,0,0-35.989,0V59.2a6,6,0,1,0,3,0V37.995a15,15,0,0,1,29.991,0V59.2a6,6,0,1,0,3,0ZM26,64.986a3,3,0,1,1-3-3A3,3,0,0,1,26,64.986Zm29.991,3a3,3,0,1,1,3-3A3,3,0,0,1,55.988,67.985Z" transform="translate(7.493 8.992)"/><path class="a" d="M35.5,62.705V38.5a1.5,1.5,0,0,0-3,0V62.705a6,6,0,1,0,3,0ZM34,71.49a3,3,0,1,1,3-3A3,3,0,0,1,34,71.49Z" transform="translate(12.988 17.484)"/><path class="a" d="M35,26a9,9,0,1,0,9,9,9,9,0,0,0-9-9Zm0,15a6,6,0,1,1,6-6A6,6,0,0,1,35,41Z" transform="translate(11.989 11.989)"/><path class="a" d="M31,6h3V9H31Z" transform="translate(14.487 1.998)"/><path class="a" d="M0,0H3V3H0Z" transform="translate(18.353 20.477) rotate(-45)"/><path class="a" d="M6,31H9v3H6Z" transform="translate(1.998 14.487)"/><path class="a" d="M56,31h3v3H56Z" transform="translate(26.975 14.487)"/><path class="a" d="M0,0H3V3H0Z" transform="translate(71.364 20.482) rotate(-45)"/></g></svg>