<svg xmlns="http://www.w3.org/2000/svg" width="91.309" height="89.788" viewBox="0 0 91.309 89.788"><defs><style>.a{fill:#00a4e4;}</style></defs><g transform="translate(-16 -24)"><path class="a" d="M48,80h3.044v3.044H48Z" transform="translate(-25.913 -45.348)"/><path class="a" d="M80,80h3.044v3.044H80Z" transform="translate(-51.825 -45.348)"/><path class="a" d="M112,80h3.044v3.044H112Z" transform="translate(-77.738 -45.348)"/><path class="a" d="M22.087,121.048H48.921l-.83,9.131h-4.7v3.044h33.48v-3.044h-4.7l-.83-9.131H98.179a6.094,6.094,0,0,0,6.087-6.087V81.48h-3.044v24.349H19.044V63.218H58.611V60.175H19.044V54.087a3.047,3.047,0,0,1,3.044-3.044H69.264V48H22.087A6.094,6.094,0,0,0,16,54.087V114.96A6.094,6.094,0,0,0,22.087,121.048Zm47.032,9.131H51.147l.83-9.131H68.289Zm32.1-21.306v6.087A3.047,3.047,0,0,1,98.179,118H22.087a3.047,3.047,0,0,1-3.044-3.044v-6.087Z" transform="translate(0 -19.435)"/><path class="a" d="M240,384h3.044v3.044H240Z" transform="translate(-181.389 -291.518)"/><path class="a" d="M337.131,114.262A9.131,9.131,0,1,0,328,105.131,9.131,9.131,0,0,0,337.131,114.262Zm0-15.218a6.087,6.087,0,1,1-6.087,6.087A6.087,6.087,0,0,1,337.131,99.044Z" transform="translate(-252.649 -58.304)"/><path class="a" d="M259.644,34.437a1.521,1.521,0,0,0-1.484.937l-2.045,4.937a1.522,1.522,0,0,0,.386,1.712L260.24,45.4v2.857L256.5,51.63a1.522,1.522,0,0,0-.386,1.712l2.045,4.937a1.522,1.522,0,0,0,1.484.937l5.029-.257,2.02,2.02-.257,5.029a1.522,1.522,0,0,0,.937,1.484l4.937,2.045a1.522,1.522,0,0,0,1.712-.386l3.375-3.738h2.857l3.375,3.738a1.522,1.522,0,0,0,1.712.386l4.937-2.045a1.522,1.522,0,0,0,.937-1.484l-.257-5.029,2.02-2.02,5.029.257a1.518,1.518,0,0,0,1.484-.937l2.045-4.937a1.522,1.522,0,0,0-.386-1.712l-3.738-3.375V45.4l3.738-3.375a1.522,1.522,0,0,0,.386-1.712l-2.045-4.936a1.522,1.522,0,0,0-1.484-.937l-5.03.256-2.02-2.02.257-5.029a1.522,1.522,0,0,0-.937-1.484l-4.937-2.045a1.522,1.522,0,0,0-1.712.386l-3.375,3.738H277.4L274.024,24.5a1.522,1.522,0,0,0-1.712-.386l-4.936,2.045a1.522,1.522,0,0,0-.937,1.484l.257,5.029-2.021,2.02Zm6.7,2.887,2.976-2.976a1.522,1.522,0,0,0,.444-1.154l-.237-4.632,2.953-1.223,3.109,3.442a1.522,1.522,0,0,0,1.13.5h4.21a1.522,1.522,0,0,0,1.128-.5l3.108-3.443,2.953,1.223-.237,4.632a1.522,1.522,0,0,0,.444,1.154l2.977,2.977a1.524,1.524,0,0,0,1.154.444l4.632-.237,1.223,2.953-3.442,3.109a1.522,1.522,0,0,0-.5,1.13v4.21a1.522,1.522,0,0,0,.5,1.128l3.443,3.108-1.223,2.953-4.632-.237a1.52,1.52,0,0,0-1.154.444l-2.977,2.977a1.522,1.522,0,0,0-.444,1.154l.237,4.632-2.953,1.223-3.109-3.442a1.522,1.522,0,0,0-1.13-.5h-4.21a1.522,1.522,0,0,0-1.128.5l-3.108,3.443-2.953-1.223.237-4.632a1.522,1.522,0,0,0-.444-1.154l-2.977-2.977a1.525,1.525,0,0,0-1.154-.444l-4.632.237-1.223-2.953,3.442-3.109a1.522,1.522,0,0,0,.5-1.13v-4.21a1.522,1.522,0,0,0-.5-1.128l-3.443-3.108,1.223-2.953,4.632.237A1.523,1.523,0,0,0,266.348,37.324Z" transform="translate(-194.345 0)"/><path class="a" d="M65.131,153.522A1.522,1.522,0,0,0,63.609,152H57.522A1.522,1.522,0,0,0,56,153.522v6.087a1.522,1.522,0,0,0,1.522,1.522h6.087a1.522,1.522,0,0,0,1.522-1.522Zm-3.044,4.565H59.044v-3.044h3.044Z" transform="translate(-32.391 -103.651)"/><path class="a" d="M129.131,153.522A1.522,1.522,0,0,0,127.609,152h-6.087A1.522,1.522,0,0,0,120,153.522v6.087a1.522,1.522,0,0,0,1.522,1.522h6.087a1.522,1.522,0,0,0,1.522-1.522Zm-3.044,4.565h-3.044v-3.044h3.044Z" transform="translate(-84.216 -103.651)"/><path class="a" d="M193.131,153.522A1.522,1.522,0,0,0,191.609,152h-6.087A1.522,1.522,0,0,0,184,153.522v6.087a1.522,1.522,0,0,0,1.522,1.522h6.087a1.522,1.522,0,0,0,1.522-1.522Zm-3.044,4.565h-3.044v-3.044h3.044Z" transform="translate(-136.042 -103.651)"/><path class="a" d="M65.131,217.522A1.522,1.522,0,0,0,63.609,216H57.522A1.522,1.522,0,0,0,56,217.522v6.087a1.522,1.522,0,0,0,1.522,1.522h6.087a1.522,1.522,0,0,0,1.522-1.522Zm-3.044,4.565H59.044v-3.044h3.044Z" transform="translate(-32.391 -155.477)"/><path class="a" d="M129.131,217.522A1.522,1.522,0,0,0,127.609,216h-6.087A1.522,1.522,0,0,0,120,217.522v6.087a1.522,1.522,0,0,0,1.522,1.522h6.087a1.522,1.522,0,0,0,1.522-1.522Zm-3.044,4.565h-3.044v-3.044h3.044Z" transform="translate(-84.216 -155.477)"/><path class="a" d="M193.131,217.522A1.522,1.522,0,0,0,191.609,216h-6.087A1.522,1.522,0,0,0,184,217.522v6.087a1.522,1.522,0,0,0,1.522,1.522h6.087a1.522,1.522,0,0,0,1.522-1.522Zm-3.044,4.565h-3.044v-3.044h3.044Z" transform="translate(-136.042 -155.477)"/><path class="a" d="M63.609,280H57.522A1.522,1.522,0,0,0,56,281.522v6.087a1.522,1.522,0,0,0,1.522,1.522h6.087a1.522,1.522,0,0,0,1.522-1.522v-6.087A1.522,1.522,0,0,0,63.609,280Zm-1.522,6.087H59.044v-3.044h3.044Z" transform="translate(-32.391 -207.302)"/><path class="a" d="M127.609,280h-6.087A1.522,1.522,0,0,0,120,281.522v6.087a1.522,1.522,0,0,0,1.522,1.522h6.087a1.522,1.522,0,0,0,1.522-1.522v-6.087A1.522,1.522,0,0,0,127.609,280Zm-1.522,6.087h-3.044v-3.044h3.044Z" transform="translate(-84.216 -207.302)"/><path class="a" d="M191.609,280h-6.087A1.522,1.522,0,0,0,184,281.522v6.087a1.522,1.522,0,0,0,1.522,1.522h6.087a1.522,1.522,0,0,0,1.522-1.522v-6.087A1.522,1.522,0,0,0,191.609,280Zm-1.522,6.087h-3.044v-3.044h3.044Z" transform="translate(-136.042 -207.302)"/><path class="a" d="M272,280h3.044v3.044H272Z" transform="translate(-207.302 -207.302)"/><path class="a" d="M304,280h25.871v3.044H304Z" transform="translate(-233.214 -207.302)"/><path class="a" d="M256,312h28.915v3.044H256Z" transform="translate(-194.345 -233.215)"/></g></svg>