<svg xmlns="http://www.w3.org/2000/svg" width="107" height="105.788" viewBox="0 0 107 105.788"><defs><style>.a{fill:#00a4e4;}</style></defs><g transform="translate(-0.586 -1.293)"><path class="a" d="M95.164,86.737a10.286,10.286,0,1,0-12.871,0A18.922,18.922,0,0,0,73.3,93.632V92.439a18.871,18.871,0,0,0-12.422-17.7,10.3,10.3,0,0,0,3.388-4.959A6.805,6.805,0,0,0,73.3,63.3V59.278l5.3,5.3a7.051,7.051,0,0,0,3.715,2.028,7.271,7.271,0,0,0,1.284.117,6.857,6.857,0,0,0,6.84-6.859,6.7,6.7,0,0,0-1.908-4.738L75.576,39.675A29.14,29.14,0,0,0,69,33.884l-17.111-11A18.925,18.925,0,0,0,43.778,20l-7.889-.876,2.119-2.119L23.582,2.586l-23,23L15.011,40.005l1.245-1.245,1.888,3.773A31.975,31.975,0,0,0,27.92,54.076L43.3,65.262a7.736,7.736,0,0,0,.905.557c-.026.3-.051.6-.051.905a10.272,10.272,0,0,0,3.85,8.013,18.871,18.871,0,0,0-12.422,17.7V93.63a18.933,18.933,0,0,0-8.994-6.895,10.285,10.285,0,1,0-12.871,0A18.871,18.871,0,0,0,1.3,104.439v1.714H39.012v-1.714A18.735,18.735,0,0,0,35.94,94.153h37a18.723,18.723,0,0,0-3.074,10.286v1.714h37.716v-1.714a18.871,18.871,0,0,0-12.422-17.7ZM13.3,78.724a6.857,6.857,0,1,1,6.857,6.857A6.864,6.864,0,0,1,13.3,78.724ZM24.928,89.782l-4.774,5.251-4.774-5.251a15.161,15.161,0,0,1,9.549,0ZM4.819,102.724a15.451,15.451,0,0,1,7.289-11.443l8.045,8.849L28.2,91.282a15.447,15.447,0,0,1,7.289,11.443ZM55.672,56.519A7.606,7.606,0,0,0,53.625,53.4L41.074,42.1l13.243,3.612a7.143,7.143,0,0,1,5.267,6.9v5.22A10.2,10.2,0,0,0,55.672,56.519Zm30.337.924a3.431,3.431,0,0,1-3.082,5.793,3.717,3.717,0,0,1-1.9-1.078L73.3,54.43V42.294ZM5.434,25.581,23.582,7.434l9.576,9.576L15.011,35.157ZM29.938,51.3a28.748,28.748,0,0,1-3.389-2.9A28.441,28.441,0,0,1,21.21,41l-2.4-4.795L32.785,22.233,43.4,23.415a15.5,15.5,0,0,1,6.64,2.355l17.111,11A25.619,25.619,0,0,1,69.872,38.8V63.3a3.422,3.422,0,0,1-5.167,2.95,10.228,10.228,0,0,0-1.69-5.2V52.609a10.577,10.577,0,0,0-7.793-10.2L37.752,37.641A1.719,1.719,0,0,0,35.583,39.3V41.01a1.708,1.708,0,0,0,.567,1.274L51.331,55.945a4.217,4.217,0,0,1-2.82,7.351H47.8a4.2,4.2,0,0,1-2.479-.806Zm17.646,15.42c0-.005,0-.01,0-.017.072,0,.141.017.213.017h.713a7.633,7.633,0,0,0,7.545-6.645,6.849,6.849,0,1,1-8.472,6.645ZM59.215,77.782l-4.774,5.251-4.774-5.251a15.161,15.161,0,0,1,9.549,0ZM39.106,90.724A15.451,15.451,0,0,1,46.4,79.282l8.045,8.849,8.044-8.849a15.447,15.447,0,0,1,7.289,11.443Zm42.765-12a6.857,6.857,0,1,1,6.857,6.857A6.864,6.864,0,0,1,81.871,78.724ZM93.5,89.782l-4.774,5.251-4.774-5.251a15.161,15.161,0,0,1,9.549,0ZM73.393,102.724a15.451,15.451,0,0,1,7.289-11.443l8.045,8.849,8.044-8.849a15.447,15.447,0,0,1,7.289,11.443Z" transform="translate(0 0.928)"/><path class="a" d="M70.9,3.722,68.47,1.293,55.943,13.82,53.722,11.6l-2.429,2.429,4.65,4.65Z" transform="translate(36.184 0)"/><path class="a" d="M56.153,24.306A5.153,5.153,0,1,0,51,19.153,5.159,5.159,0,0,0,56.153,24.306Zm0-6.871a1.718,1.718,0,1,1-1.718,1.718A1.721,1.721,0,0,1,56.153,17.435Z" transform="translate(35.974 9.073)"/><path class="a" d="M37,8H57.612v3.435H37Z" transform="translate(25.984 4.813)"/><path class="a" d="M37,16H50.741v3.435H37Z" transform="translate(25.995 10.504)"/><path class="a" d="M47,16h3.435v3.435H47Z" transform="translate(33.151 10.504)"/><path class="a" d="M37,12H57.612v3.435H37Z" transform="translate(25.984 7.647)"/></g></svg>